<svg version="1.1" id="Layer_1" xmlns="http://www.w3.org/2000/svg" xmlns:xlink="http://www.w3.org/1999/xlink" x="0px" y="0px"
	 width="100%" viewBox="0 0 640 640" enable-background="new 0 0 640 640" xml:space="preserve">
<path fill="#2C2C2B" opacity="1.000000" stroke="none" 
	d="
M641.000000,284.000000 
	C641.000000,308.354218 641.000000,332.708466 640.606567,357.595093 
	C639.821655,358.798309 639.145752,359.442413 639.080078,360.143738 
	C637.048157,381.849060 631.842102,402.891235 624.924194,423.450836 
	C615.146912,452.508423 601.501465,479.711273 583.788574,504.820740 
	C579.854675,510.397308 576.343079,516.270264 572.487427,521.904419 
	C570.938049,524.168579 569.105957,526.273560 567.191528,528.246338 
	C563.484436,532.066467 559.536621,535.654053 555.852905,539.495422 
	C548.795044,546.855225 542.194641,554.693665 534.742676,561.621643 
	C529.653442,566.353027 523.251221,569.639587 517.794434,574.018738 
	C513.642090,577.351074 509.821289,580.923401 505.075073,583.621155 
	C492.254730,590.908203 480.014130,599.231018 467.091339,606.318298 
	C448.705170,616.401978 429.085358,623.809570 408.931396,629.416870 
	C395.590088,633.128784 381.787048,635.168945 368.216370,638.077026 
	C364.760803,638.817566 361.402802,640.013306 358.000000,641.000000 
	C333.645782,641.000000 309.291534,641.000000 284.404755,640.606567 
	C279.252258,639.441284 274.602997,638.812439 270.017395,637.873047 
	C249.911621,633.754272 229.868469,629.437927 210.605728,622.074402 
	C192.577560,615.182739 174.981567,607.427795 158.532455,597.270325 
	C147.570831,590.501404 136.647476,583.663025 125.871185,576.605042 
	C121.590523,573.801453 117.555252,570.537659 113.772675,567.084167 
	C110.329826,563.940918 107.521507,560.113464 104.187500,556.838013 
	C94.243973,547.069275 83.994133,537.605164 74.246056,527.647949 
	C69.832756,523.140015 66.107803,517.898865 62.464783,512.713379 
	C59.073059,507.885620 56.156212,502.719299 53.116753,497.650177 
	C48.115097,489.308533 42.813423,481.119812 38.287365,472.524780 
	C20.921728,439.547333 8.972223,404.754822 3.864623,367.715790 
	C3.408541,364.408417 1.977981,361.235413 0.999999,358.000000 
	C1.000000,333.645782 1.000000,309.291534 1.393783,284.407776 
	C2.187283,282.873627 2.791583,281.900909 2.953962,280.859314 
	C4.124839,273.348267 4.550224,265.653015 6.449123,258.337311 
	C10.732115,241.836639 14.607230,225.086823 20.739594,209.248093 
	C27.426659,191.976654 36.318665,175.541763 44.579136,158.905899 
	C47.510334,153.002716 51.326694,147.527084 54.893669,141.955307 
	C57.850533,137.336578 60.920860,132.780273 64.153793,128.351700 
	C66.771530,124.765831 69.765892,121.457497 72.484161,117.941750 
	C75.572609,113.947212 78.166237,109.498840 81.643181,105.891884 
	C87.545326,99.768997 94.030281,94.212212 100.158035,88.301140 
	C105.066254,83.566475 109.475342,78.256119 114.711639,73.935280 
	C120.633247,69.048943 127.083969,64.751877 133.566849,60.608952 
	C145.572189,52.936859 157.488159,45.055420 169.949234,38.181904 
	C189.773254,27.246986 210.676758,18.584063 232.584900,12.798060 
	C246.151367,9.215120 260.054047,6.913939 273.781219,3.924586 
	C277.235931,3.172254 280.596283,1.986549 284.000000,1.000001 
	C308.354218,1.000000 332.708466,1.000000 357.597809,1.392695 
	C363.875244,2.851232 369.603699,3.999333 375.362183,4.969110 
	C405.126526,9.981682 433.793274,18.708353 460.598480,32.516567 
	C477.202606,41.069870 492.941864,51.327248 508.902588,61.092293 
	C515.383789,65.057610 521.671692,69.438583 527.573120,74.216438 
	C531.426880,77.336433 534.207520,81.745918 537.862244,85.156250 
	C543.173035,90.111992 549.111206,94.300224 553.776245,100.066124 
	C557.934570,105.205727 563.313416,109.338707 567.738403,114.287300 
	C571.953796,119.001595 576.000244,123.954514 579.464783,129.233185 
	C585.378662,138.243637 590.703796,147.638306 596.430664,156.774750 
	C598.940552,160.778961 602.373169,164.279297 604.428223,168.477646 
	C608.024353,175.824600 610.709290,183.611038 614.077759,191.077209 
	C626.007324,217.519379 633.874023,245.112473 638.104431,273.791565 
	C638.616211,277.261261 640.013245,280.600372 641.000000,284.000000 
M17.224054,313.828400 
	C19.240347,314.218933 21.256174,314.947601 23.272999,314.950378 
	C70.070145,315.014557 116.867401,315.000031 163.664642,315.000000 
	C187.313065,315.000000 210.961731,315.044434 234.609406,314.911407 
	C236.404419,314.901337 238.192337,313.631866 239.966309,312.487274 
	C239.966309,312.487274 239.875504,312.035461 240.059647,311.304474 
	C240.078522,310.553802 240.097412,309.803131 240.351257,308.409607 
	C240.428757,307.960663 240.506271,307.511688 240.869720,306.394806 
	C250.124420,259.533722 295.032074,230.223923 340.852692,242.172897 
	C374.289581,250.892517 393.972656,273.537048 401.477600,307.749084 
	C401.612488,308.185181 401.747345,308.621246 401.807373,309.805939 
	C401.912872,310.548309 402.018372,311.290680 402.032867,312.485504 
	C402.032867,312.485504 402.016724,312.946777 402.215637,313.731689 
	C404.043518,314.154449 405.870544,314.941711 407.699371,314.945892 
	C440.339569,315.020447 472.979980,315.000000 505.620361,315.000000 
	C543.589783,315.000000 581.559204,315.026917 619.528320,314.917755 
	C621.359314,314.912506 623.186890,313.709106 625.061157,312.534210 
	C625.026672,312.360443 624.992249,312.186707 625.080811,311.087280 
	C624.780212,291.205933 622.462402,271.507019 617.504639,252.304703 
	C589.154236,142.496826 521.312134,68.662064 414.265198,31.320580 
	C386.159943,21.516542 356.897461,16.837353 326.083466,16.880825 
	C322.389771,16.921978 318.696106,16.963131 314.075897,16.855589 
	C296.725159,18.664404 279.004913,18.804588 262.083527,22.552155 
	C150.155579,47.340759 73.814903,113.798622 33.556717,221.122360 
	C22.623508,250.269058 17.307470,280.762604 16.935698,312.534424 
	C16.951616,312.711487 16.967535,312.888519 17.224054,313.828400 
M625.035400,328.969971 
	C625.035400,328.969971 625.038391,328.894348 624.752319,328.150482 
	C622.902771,327.767426 621.053711,327.052704 619.203613,327.049988 
	C575.911987,326.987122 532.620361,327.001251 489.328705,327.001251 
	C462.021667,327.001282 434.714417,326.963013 407.407959,327.088715 
	C405.605530,327.096985 403.808838,328.356049 401.976959,329.868042 
	C396.534698,371.644470 363.813202,401.393463 322.328644,402.280975 
	C280.044403,403.185577 243.678223,370.835114 239.758926,328.260590 
	C237.934525,327.840851 236.111389,327.062103 234.285553,327.055786 
	C210.644211,326.973602 187.002502,327.001221 163.360886,327.001251 
	C116.410622,327.001251 69.460312,326.979889 22.510269,327.080933 
	C20.662632,327.084900 18.817509,328.257416 16.862116,329.827454 
	C18.325266,344.706635 18.635078,359.807007 21.439573,374.428894 
	C39.061924,466.307251 88.319031,536.367065 168.591415,584.347473 
	C195.636703,600.513000 224.697830,612.235718 255.747620,618.070435 
	C273.013214,621.314880 290.589111,622.907715 308.295929,625.971924 
	C308.839172,626.292358 309.379456,626.885925 309.926086,626.891907 
	C317.069183,626.969727 324.214233,627.024475 331.355682,626.903076 
	C332.237854,626.888062 333.102203,625.823242 334.859161,625.033813 
	C342.411469,624.381836 350.006317,624.040710 357.507477,623.014832 
	C374.332825,620.713623 390.989777,617.936523 407.420624,613.094177 
	C525.905579,578.175720 613.697937,471.480957 624.878235,348.781494 
	C624.923279,346.188721 624.968262,343.595947 624.863647,340.150604 
	C624.978760,338.427399 625.093933,336.704224 625.887817,334.772339 
	C627.344543,332.605133 628.188110,330.519928 625.035400,328.969971 
M307.335663,256.442383 
	C306.720734,256.643585 306.116608,256.890472 305.489288,257.039459 
	C271.019684,265.226166 248.834061,300.360504 256.776062,334.750732 
	C263.012360,361.754913 280.378571,378.115723 306.998444,385.839172 
	C307.344879,385.846008 307.691315,385.852875 308.813568,385.765900 
	C310.523041,386.120392 312.232513,386.474854 314.291107,387.366882 
	C315.194489,387.242981 316.097870,387.119049 317.876862,386.826599 
	C320.250854,386.882965 322.624847,386.939331 325.504822,387.551056 
	C326.967133,387.149994 328.429443,386.748932 330.571686,386.071259 
	C359.581177,380.686249 377.588531,363.438477 385.843781,334.991669 
	C385.974701,334.907379 386.229095,334.780365 386.217072,334.745575 
	C386.123169,334.474182 385.978027,334.220551 385.772339,333.162415 
	C385.901703,332.101776 386.031097,331.041138 386.839447,329.824768 
	C386.890045,328.215790 386.940674,326.606781 386.825470,324.133789 
	C386.893005,322.086884 386.960571,320.039948 387.564697,317.490387 
	C387.096832,315.666748 386.628998,313.843140 386.004211,311.308167 
	C385.963806,310.340881 385.923431,309.373566 385.761658,307.879150 
	C385.556091,307.595703 385.350525,307.312256 384.998840,306.231567 
	C378.391602,280.108917 361.664551,264.028839 335.847626,256.196411 
	C334.574249,256.087646 333.300903,255.978882 331.498718,255.979706 
	C331.325928,255.929199 331.153137,255.878693 330.792358,255.139389 
	C328.860718,255.096420 326.929047,255.053452 324.121399,255.173965 
	C321.748474,255.119476 319.375549,255.064972 316.435303,254.432495 
	C315.384735,254.498718 314.334198,254.564941 313.083710,255.193604 
	C311.721161,255.456207 310.358643,255.718811 308.791565,255.670929 
	C308.523895,255.797913 308.256226,255.924896 307.335663,256.442383 
z"/>
<path fill="#000000" opacity="1.000000" stroke="none" 
	d="
M358.468658,641.000000 
	C361.402802,640.013306 364.760803,638.817566 368.216370,638.077026 
	C381.787048,635.168945 395.590088,633.128784 408.931396,629.416870 
	C429.085358,623.809570 448.705170,616.401978 467.091339,606.318298 
	C480.014130,599.231018 492.254730,590.908203 505.075073,583.621155 
	C509.821289,580.923401 513.642090,577.351074 517.794434,574.018738 
	C523.251221,569.639587 529.653442,566.353027 534.742676,561.621643 
	C542.194641,554.693665 548.795044,546.855225 555.852905,539.495422 
	C559.536621,535.654053 563.484436,532.066467 567.191528,528.246338 
	C569.105957,526.273560 570.938049,524.168579 572.487427,521.904419 
	C576.343079,516.270264 579.854675,510.397308 583.788574,504.820740 
	C601.501465,479.711273 615.146912,452.508423 624.924194,423.450836 
	C631.842102,402.891235 637.048157,381.849060 639.080078,360.143738 
	C639.145752,359.442413 639.821655,358.798309 640.606567,358.063782 
	C641.000000,452.260406 641.000000,546.520813 641.000000,641.000000 
	C546.979248,641.000000 452.958282,641.000000 358.468658,641.000000 
z"/>
<path fill="#000000" opacity="1.000000" stroke="none" 
	d="
M0.999999,358.468658 
	C1.977981,361.235413 3.408541,364.408417 3.864623,367.715790 
	C8.972223,404.754822 20.921728,439.547333 38.287365,472.524780 
	C42.813423,481.119812 48.115097,489.308533 53.116753,497.650177 
	C56.156212,502.719299 59.073059,507.885620 62.464783,512.713379 
	C66.107803,517.898865 69.832756,523.140015 74.246056,527.647949 
	C83.994133,537.605164 94.243973,547.069275 104.187500,556.838013 
	C107.521507,560.113464 110.329826,563.940918 113.772675,567.084167 
	C117.555252,570.537659 121.590523,573.801453 125.871185,576.605042 
	C136.647476,583.663025 147.570831,590.501404 158.532455,597.270325 
	C174.981567,607.427795 192.577560,615.182739 210.605728,622.074402 
	C229.868469,629.437927 249.911621,633.754272 270.017395,637.873047 
	C274.602997,638.812439 279.252258,639.441284 283.936096,640.606567 
	C189.739609,641.000000 95.479210,641.000000 1.000000,641.000000 
	C1.000000,546.979248 1.000000,452.958282 0.999999,358.468658 
z"/>
<path fill="#000000" opacity="1.000000" stroke="none" 
	d="
M641.000000,283.531342 
	C640.013245,280.600372 638.616211,277.261261 638.104431,273.791565 
	C633.874023,245.112473 626.007324,217.519379 614.077759,191.077209 
	C610.709290,183.611038 608.024353,175.824600 604.428223,168.477646 
	C602.373169,164.279297 598.940552,160.778961 596.430664,156.774750 
	C590.703796,147.638306 585.378662,138.243637 579.464783,129.233185 
	C576.000244,123.954514 571.953796,119.001595 567.738403,114.287300 
	C563.313416,109.338707 557.934570,105.205727 553.776245,100.066124 
	C549.111206,94.300224 543.173035,90.111992 537.862244,85.156250 
	C534.207520,81.745918 531.426880,77.336433 527.573120,74.216438 
	C521.671692,69.438583 515.383789,65.057610 508.902588,61.092293 
	C492.941864,51.327248 477.202606,41.069870 460.598480,32.516567 
	C433.793274,18.708353 405.126526,9.981682 375.362183,4.969110 
	C369.603699,3.999333 363.875244,2.851232 358.066467,1.392695 
	C452.260376,1.000000 546.520752,1.000000 641.000000,1.000000 
	C641.000000,95.020782 641.000000,189.041733 641.000000,283.531342 
z"/>
<path fill="#000000" opacity="1.000000" stroke="none" 
	d="
M283.531342,1.000001 
	C280.596283,1.986549 277.235931,3.172254 273.781219,3.924586 
	C260.054047,6.913939 246.151367,9.215120 232.584900,12.798060 
	C210.676758,18.584063 189.773254,27.246986 169.949234,38.181904 
	C157.488159,45.055420 145.572189,52.936859 133.566849,60.608952 
	C127.083969,64.751877 120.633247,69.048943 114.711639,73.935280 
	C109.475342,78.256119 105.066254,83.566475 100.158035,88.301140 
	C94.030281,94.212212 87.545326,99.768997 81.643181,105.891884 
	C78.166237,109.498840 75.572609,113.947212 72.484161,117.941750 
	C69.765892,121.457497 66.771530,124.765831 64.153793,128.351700 
	C60.920860,132.780273 57.850533,137.336578 54.893669,141.955307 
	C51.326694,147.527084 47.510334,153.002716 44.579136,158.905899 
	C36.318665,175.541763 27.426659,191.976654 20.739594,209.248093 
	C14.607230,225.086823 10.732115,241.836639 6.449123,258.337311 
	C4.550224,265.653015 4.124839,273.348267 2.953962,280.859314 
	C2.791583,281.900909 2.187283,282.873627 1.393783,283.939117 
	C1.000000,189.739609 1.000000,95.479210 1.000000,1.000000 
	C95.020782,1.000000 189.041733,1.000000 283.531342,1.000001 
z"/>
<path fill="#E41F25" opacity="1.000000" stroke="none" 
	d="
M326.997711,17.004288 
	C356.897461,16.837353 386.159943,21.516542 414.265198,31.320580 
	C521.312134,68.662064 589.154236,142.496826 617.504639,252.304703 
	C622.462402,271.507019 624.780212,291.205933 624.816650,311.658386 
	C624.300232,312.419678 624.119690,312.663086 623.546326,313.032990 
	C550.709961,313.119324 478.338165,313.133118 405.966339,313.137054 
	C404.972809,313.137115 403.979279,313.012146 402.887939,312.753815 
	C402.621399,312.318542 402.399323,312.142181 402.123871,312.033051 
	C402.018372,311.290680 401.912872,310.548309 402.083679,309.248474 
	C402.044739,308.149292 401.729553,307.607574 401.414368,307.065857 
	C393.972656,273.537048 374.289581,250.892517 340.852692,242.172897 
	C295.032074,230.223923 250.124420,259.533722 240.432434,306.812561 
	C240.035538,307.837677 240.075928,308.445068 240.116302,309.052460 
	C240.097412,309.803131 240.078522,310.553802 239.781067,311.776489 
	C239.274887,312.435394 239.112167,312.667725 238.550385,313.024719 
	C165.548523,313.116791 93.010582,313.130249 20.472639,313.134857 
	C19.644802,313.134918 18.816957,313.020691 17.880070,312.756714 
	C17.580423,312.300232 17.336138,312.119415 17.038170,312.011139 
	C17.307470,280.762604 22.623508,250.269058 33.556717,221.122360 
	C73.814903,113.798622 150.155579,47.340759 262.083527,22.552155 
	C279.004913,18.804588 296.725159,18.664404 314.837524,17.209532 
	C319.398651,17.377079 323.198181,17.190683 326.997711,17.004288 
z"/>
<path fill="#FFFFFF" opacity="1.000000" stroke="none" 
	d="
M308.025177,625.244873 
	C290.589111,622.907715 273.013214,621.314880 255.747620,618.070435 
	C224.697830,612.235718 195.636703,600.513000 168.591415,584.347473 
	C88.319031,536.367065 39.061924,466.307251 21.439573,374.428894 
	C18.635078,359.807007 18.325266,344.706635 17.386654,329.332489 
	C89.946297,328.840515 161.981400,328.842041 234.016510,328.854431 
	C236.007736,328.854767 237.998917,328.971893 239.990128,329.034546 
	C243.678223,370.835114 280.044403,403.185577 322.328644,402.280975 
	C363.813202,401.393463 396.534698,371.644470 402.454651,329.366638 
	C476.967712,328.874939 551.003052,328.884644 625.038391,328.894348 
	C625.038391,328.894348 625.035400,328.969971 625.115112,329.393738 
	C625.199524,331.538666 625.204346,333.259827 625.209106,334.981018 
	C625.093933,336.704224 624.978760,338.427399 624.838501,340.969055 
	C624.595154,344.186554 624.376831,346.585602 624.158569,348.984619 
	C613.697937,471.480957 525.905579,578.175720 407.420624,613.094177 
	C390.989777,617.936523 374.332825,620.713623 357.507477,623.014832 
	C350.006317,624.040710 342.411469,624.381836 333.953308,625.080017 
	C324.706696,625.165771 316.365936,625.205322 308.025177,625.244873 
z"/>
<path fill="#FDFDFD" opacity="1.000000" stroke="none" 
	d="
M313.941986,386.829346 
	C312.232513,386.474854 310.523041,386.120392 308.132263,385.627045 
	C307.220825,385.463562 306.990662,385.438904 306.760498,385.414246 
	C280.378571,378.115723 263.012360,361.754913 256.776062,334.750732 
	C248.834061,300.360504 271.019684,265.226166 305.489288,257.039459 
	C306.116608,256.890472 306.720734,256.643585 307.919983,256.315491 
	C308.668243,256.119507 308.832184,256.050446 308.996094,255.981400 
	C310.358643,255.718811 311.721161,255.456207 313.389099,255.246887 
	C314.797211,255.203598 315.899902,255.107040 317.002625,255.010468 
	C319.375549,255.064972 321.748474,255.119476 324.929199,255.196213 
	C327.484772,255.421707 329.232574,255.624939 330.980347,255.828186 
	C331.153137,255.878693 331.325928,255.929199 332.097534,256.037598 
	C333.791260,256.342590 334.886169,256.589691 335.981079,256.836823 
	C361.664551,264.028839 378.391602,280.108917 385.033813,306.920441 
	C385.340179,307.874969 385.611603,308.140625 385.883026,308.406281 
	C385.923431,309.373566 385.963806,310.340881 386.009399,312.043335 
	C386.352448,314.516693 386.690277,316.254852 387.028107,317.993042 
	C386.960571,320.039948 386.893005,322.086884 386.801727,324.921509 
	C386.572144,327.132996 386.366272,328.556763 386.160461,329.980499 
	C386.031097,331.041138 385.901703,332.101776 385.624634,333.847168 
	C385.455170,334.757904 385.433441,334.983856 385.411682,335.209839 
	C377.588531,363.438477 359.581177,380.686249 329.818909,386.187317 
	C327.710358,386.534149 326.354584,386.764923 324.998840,386.995697 
	C322.624847,386.939331 320.250854,386.882965 317.064026,386.808380 
	C315.481445,386.803223 314.711731,386.816284 313.941986,386.829346 
M293.498169,351.014893 
	C302.842133,359.786774 314.180115,362.700653 326.499237,361.132568 
	C351.024902,358.010681 366.591888,335.085510 360.207275,310.953674 
	C353.337952,284.989838 331.527344,276.763611 309.741058,282.097290 
	C290.883911,286.713898 280.418610,303.052887 280.190735,321.172485 
	C280.048431,332.489014 284.501709,342.579620 293.498169,351.014893 
z"/>
<path fill="#191918" opacity="1.000000" stroke="none" 
	d="
M624.895386,328.522400 
	C551.003052,328.884644 476.967712,328.874939 402.470947,328.949280 
	C403.808838,328.356049 405.605530,327.096985 407.407959,327.088715 
	C434.714417,326.963013 462.021667,327.001282 489.328705,327.001251 
	C532.620361,327.001251 575.911987,326.987122 619.203613,327.049988 
	C621.053711,327.052704 622.902771,327.767426 624.895386,328.522400 
z"/>
<path fill="#191918" opacity="1.000000" stroke="none" 
	d="
M239.874527,328.647583 
	C237.998917,328.971893 236.007736,328.854767 234.016510,328.854431 
	C161.981400,328.842041 89.946297,328.840515 17.441204,328.861481 
	C18.817509,328.257416 20.662632,327.084900 22.510269,327.080933 
	C69.460312,326.979889 116.410622,327.001251 163.360886,327.001251 
	C187.002502,327.001221 210.644211,326.973602 234.285553,327.055786 
	C236.111389,327.062103 237.934525,327.840851 239.874527,328.647583 
z"/>
<path fill="#1D2B2A" opacity="1.000000" stroke="none" 
	d="
M402.985748,312.945526 
	C403.979279,313.012146 404.972809,313.137115 405.966339,313.137054 
	C478.338165,313.133118 550.709961,313.119324 623.794006,313.093872 
	C624.676147,313.075562 624.846069,313.069641 625.016052,313.063690 
	C623.186890,313.709106 621.359314,314.912506 619.528320,314.917755 
	C581.559204,315.026917 543.589783,315.000000 505.620361,315.000000 
	C472.979980,315.000000 440.339569,315.020447 407.699371,314.945892 
	C405.870544,314.941711 404.043518,314.154449 402.358490,313.385315 
	C402.501343,313.038940 402.985748,312.945526 402.985748,312.945526 
z"/>
<path fill="#1D2B2A" opacity="1.000000" stroke="none" 
	d="
M17.989115,312.959839 
	C18.816957,313.020691 19.644802,313.134918 20.472639,313.134857 
	C93.010582,313.130249 165.548523,313.116791 238.792587,313.071533 
	C239.498718,313.039154 239.983551,312.947784 239.983551,312.947784 
	C238.192337,313.631866 236.404419,314.901337 234.609406,314.911407 
	C210.961731,315.044434 187.313065,315.000000 163.664642,315.000000 
	C116.867401,315.000031 70.070145,315.014557 23.272999,314.950378 
	C21.256174,314.947601 19.240347,314.218933 17.358795,313.455017 
	C17.658730,313.041046 17.823921,313.000458 17.989115,312.959839 
z"/>
<path fill="#161615" opacity="1.000000" stroke="none" 
	d="
M308.160553,625.608398 
	C316.365936,625.205322 324.706696,625.165771 333.511139,625.185547 
	C333.102203,625.823242 332.237854,626.888062 331.355682,626.903076 
	C324.214233,627.024475 317.069183,626.969727 309.926086,626.891907 
	C309.379456,626.885925 308.839172,626.292358 308.160553,625.608398 
z"/>
<path fill="#1A1A18" opacity="1.000000" stroke="none" 
	d="
M624.518433,348.883057 
	C624.376831,346.585602 624.595154,344.186554 624.913330,341.395355 
	C624.968262,343.595947 624.923279,346.188721 624.518433,348.883057 
z"/>
<path fill="#FC1D25" opacity="1.000000" stroke="none" 
	d="
M326.540588,16.942558 
	C323.198181,17.190683 319.398651,17.377079 315.300781,17.283878 
	C318.696106,16.963131 322.389771,16.921978 326.540588,16.942558 
z"/>
<path fill="#1A1A18" opacity="1.000000" stroke="none" 
	d="
M625.548462,334.876678 
	C625.204346,333.259827 625.199524,331.538666 625.152588,329.388306 
	C628.188110,330.519928 627.344543,332.605133 625.548462,334.876678 
z"/>
<path fill="#161615" opacity="1.000000" stroke="none" 
	d="
M330.886353,255.483780 
	C329.232574,255.624939 327.484772,255.421707 325.367188,255.114471 
	C326.929047,255.053452 328.860718,255.096420 330.886353,255.483780 
z"/>
<path fill="#151514" opacity="1.000000" stroke="none" 
	d="
M387.296387,317.741699 
	C386.690277,316.254852 386.352448,314.516693 386.087891,312.398987 
	C386.628998,313.843140 387.096832,315.666748 387.296387,317.741699 
z"/>
<path fill="#151514" opacity="1.000000" stroke="none" 
	d="
M386.499939,329.902649 
	C386.366272,328.556763 386.572144,327.132996 386.884644,325.353516 
	C386.940674,326.606781 386.890045,328.215790 386.499939,329.902649 
z"/>
<path fill="#161615" opacity="1.000000" stroke="none" 
	d="
M335.914368,256.516602 
	C334.886169,256.589691 333.791260,256.342590 332.361938,255.982788 
	C333.300903,255.978882 334.574249,256.087646 335.914368,256.516602 
z"/>
<path fill="#131312" opacity="1.000000" stroke="none" 
	d="
M325.251831,387.273376 
	C326.354584,386.764923 327.710358,386.534149 329.478943,386.325623 
	C328.429443,386.748932 326.967133,387.149994 325.251831,387.273376 
z"/>
<path fill="#161615" opacity="1.000000" stroke="none" 
	d="
M316.718964,254.721497 
	C315.899902,255.107040 314.797211,255.203598 313.489075,254.965668 
	C314.334198,254.564941 315.384735,254.498718 316.718964,254.721497 
z"/>
<path fill="#131312" opacity="1.000000" stroke="none" 
	d="
M314.116547,387.098114 
	C314.711731,386.816284 315.481445,386.803223 316.626221,386.892639 
	C316.097870,387.119049 315.194489,387.242981 314.116547,387.098114 
z"/>
<path fill="#F61E25" opacity="1.000000" stroke="none" 
	d="
M401.445984,307.407471 
	C401.729553,307.607574 402.044739,308.149292 402.121094,308.874146 
	C401.747345,308.621246 401.612488,308.185181 401.445984,307.407471 
z"/>
<path fill="#F61E25" opacity="1.000000" stroke="none" 
	d="
M240.233780,308.731018 
	C240.075928,308.445068 240.035538,307.837677 240.289459,307.146515 
	C240.506271,307.511688 240.428757,307.960663 240.233780,308.731018 
z"/>
<path fill="#151514" opacity="1.000000" stroke="none" 
	d="
M385.627747,335.100769 
	C385.433441,334.983856 385.455170,334.757904 385.662842,334.246674 
	C385.978027,334.220551 386.123169,334.474182 386.217072,334.745575 
	C386.229095,334.780365 385.974701,334.907379 385.627747,335.100769 
z"/>
<path fill="#131312" opacity="1.000000" stroke="none" 
	d="
M306.879456,385.626709 
	C306.990662,385.438904 307.220825,385.463562 307.744385,385.673950 
	C307.691315,385.852875 307.344879,385.846008 306.879456,385.626709 
z"/>
<path fill="#161615" opacity="1.000000" stroke="none" 
	d="
M308.893829,255.826172 
	C308.832184,256.050446 308.668243,256.119507 308.246460,256.120239 
	C308.256226,255.924896 308.523895,255.797913 308.893829,255.826172 
z"/>
<path fill="#151514" opacity="1.000000" stroke="none" 
	d="
M385.822327,308.142700 
	C385.611603,308.140625 385.340179,307.874969 385.106873,307.319061 
	C385.350525,307.312256 385.556091,307.595703 385.822327,308.142700 
z"/>
<path fill="#F61E25" opacity="1.000000" stroke="none" 
	d="
M17.880070,312.756714 
	C17.823921,313.000458 17.658730,313.041046 17.238495,313.073608 
	C16.967535,312.888519 16.951616,312.711487 16.986935,312.272766 
	C17.336138,312.119415 17.580423,312.300232 17.880070,312.756714 
z"/>
<path fill="#F61E25" opacity="1.000000" stroke="none" 
	d="
M239.974930,312.717529 
	C239.983551,312.947784 239.498718,313.039154 239.256531,312.992310 
	C239.112167,312.667725 239.274887,312.435394 239.688995,312.141998 
	C239.875504,312.035461 239.966309,312.487274 239.974930,312.717529 
z"/>
<path fill="#F61E25" opacity="1.000000" stroke="none" 
	d="
M625.038574,312.798950 
	C624.846069,313.069641 624.676147,313.075562 624.258545,313.020599 
	C624.119690,312.663086 624.300232,312.419678 624.755127,312.121246 
	C624.992249,312.186707 625.026672,312.360443 625.038574,312.798950 
z"/>
<path fill="#F61E25" opacity="1.000000" stroke="none" 
	d="
M402.887939,312.753815 
	C402.985748,312.945526 402.501343,313.038940 402.259033,312.992859 
	C402.016724,312.946777 402.032867,312.485504 402.078369,312.259277 
	C402.399323,312.142181 402.621399,312.318542 402.887939,312.753815 
z"/>
<path fill="#2D2D2C" opacity="1.000000" stroke="none" 
	d="
M293.239563,350.772705 
	C284.501709,342.579620 280.048431,332.489014 280.190735,321.172485 
	C280.418610,303.052887 290.883911,286.713898 309.741058,282.097290 
	C331.527344,276.763611 353.337952,284.989838 360.207275,310.953674 
	C366.591888,335.085510 351.024902,358.010681 326.499237,361.132568 
	C314.180115,362.700653 302.842133,359.786774 293.239563,350.772705 
M301.299622,294.702362 
	C288.038147,305.393768 284.308563,321.830505 291.877777,336.225403 
	C299.160248,350.074951 315.158875,356.995514 329.966675,352.701508 
	C343.598846,348.748444 353.688568,336.149597 353.896729,322.196930 
	C354.091217,309.158844 348.549377,298.881989 337.170044,292.452148 
	C325.219543,285.699554 313.279022,286.629486 301.299622,294.702362 
z"/>
<path fill="#FDFDFD" opacity="1.000000" stroke="none" 
	d="
M301.584229,294.476990 
	C313.279022,286.629486 325.219543,285.699554 337.170044,292.452148 
	C348.549377,298.881989 354.091217,309.158844 353.896729,322.196930 
	C353.688568,336.149597 343.598846,348.748444 329.966675,352.701508 
	C315.158875,356.995514 299.160248,350.074951 291.877777,336.225403 
	C284.308563,321.830505 288.038147,305.393768 301.584229,294.476990 
z"/>
</svg>